<?xml version="1.0" standalone="no"?>
<!DOCTYPE svg PUBLIC "-//W3C//DTD SVG 20010904//EN"
 "http://www.w3.org/TR/2001/REC-SVG-20010904/DTD/svg10.dtd">
<svg version="1.0" xmlns="http://www.w3.org/2000/svg"
 width="600.000000pt" height="600.000000pt" viewBox="0 0 600.000000 600.000000"
 preserveAspectRatio="xMidYMid meet">
<metadata>
Created by potrace 1.11, written by Peter Selinger 2001-2013
</metadata>
<g transform="translate(0.000000,600.000000) scale(0.100000,-0.100000)"
fill="#000000" stroke="none">
<path d="M1675 5975 c-25 -26 -25 -26 -25 -210 0 -176 1 -185 23 -209 12 -14
33 -28 47 -30 32 -5 77 21 84 48 8 29 7 360 0 381 -8 19 -55 45 -83 45 -11 0
-32 -11 -46 -25z"/>
<path d="M663 5554 c-21 -21 -24 -32 -20 -62 5 -29 29 -58 136 -164 142 -140
164 -151 215 -105 55 49 38 82 -118 235 -139 136 -162 147 -213 96z"/>
<path d="M2579 5451 c-105 -105 -131 -136 -136 -164 -7 -46 30 -87 79 -87 29
0 49 16 166 133 114 116 132 138 132 166 0 42 -38 81 -80 81 -27 0 -50 -19
-161 -129z"/>
<path d="M1635 5362 c-75 -8 -203 -45 -278 -81 -208 -100 -375 -285 -451 -502
-17 -47 -19 -57 -36 -139 -19 -96 -9 -251 25 -396 19 -80 102 -235 165 -308
64 -73 209 -195 234 -196 5 0 17 -6 25 -13 18 -15 139 -65 174 -71 12 -3 23
-5 25 -7 3 -2 10 -4 62 -14 69 -13 224 -13 296 0 35 7 64 10 64 7 0 -3 5 -1
12 6 7 7 19 12 28 12 28 0 167 67 236 113 119 79 214 184 282 308 34 62 77
181 87 244 14 86 21 144 20 157 -1 7 -5 49 -9 93 -3 44 -13 105 -21 135 -9 30
-18 62 -20 71 -2 9 -8 25 -13 35 -5 11 -16 33 -23 49 -95 209 -296 386 -519
457 -117 37 -252 52 -365 40z m225 -166 c47 -9 98 -25 137 -42 17 -8 34 -14
38 -14 3 0 38 -20 76 -45 236 -153 359 -412 326 -690 -3 -28 -17 -86 -31 -130
-73 -229 -264 -409 -501 -472 -71 -18 -222 -24 -300 -10 -282 47 -521 284
-576 570 -9 50 -12 174 -5 232 9 81 77 256 113 293 7 7 13 17 13 22 0 14 124
135 173 169 87 59 192 102 287 118 19 3 36 6 37 7 6 5 180 -2 213 -8z"/>
<path d="M265 4558 c-52 -28 -61 -84 -19 -123 27 -25 30 -25 210 -25 175 0
184 1 209 23 23 20 30 44 26 87 0 9 -14 23 -30 33 -25 14 -56 17 -203 17 -106
0 -181 -5 -193 -12z"/>
<path d="M2794 4547 c-42 -36 -30 -118 20 -131 11 -3 100 -6 197 -6 175 0 176
0 204 26 23 22 27 31 22 62 -11 68 -25 72 -233 72 -177 0 -184 -1 -210 -23z"/>
<path d="M4088 4475 c-2 -2 -21 -6 -43 -8 -152 -18 -360 -106 -500 -211 -71
-53 -201 -192 -252 -267 -127 -189 -190 -389 -195 -620 -1 -50 9 -168 17 -207
17 -78 48 -180 69 -227 14 -30 26 -57 26 -59 0 -4 89 -160 178 -311 l41 -70
-1087 -5 c-941 -4 -1090 -7 -1110 -20 -12 -8 -22 -18 -22 -22 0 -4 -13 -35
-29 -70 -55 -121 -106 -243 -103 -250 1 -5 -3 -8 -8 -8 -6 0 -10 -5 -10 -11 0
-10 -388 -926 -450 -1064 -10 -22 -30 -69 -44 -105 -15 -36 -33 -78 -41 -95
-7 -16 -23 -52 -35 -80 -12 -27 -28 -64 -36 -82 -8 -17 -14 -34 -14 -37 0 -3
-11 -29 -24 -58 -13 -29 -43 -98 -66 -153 -23 -55 -51 -118 -61 -140 -44 -97
-69 -166 -69 -189 0 -14 11 -38 24 -53 l24 -28 2723 -1 2724 -1 27 28 c18 17
28 38 28 57 0 23 -109 296 -170 427 -5 11 -39 90 -76 175 -36 85 -72 169 -79
185 -43 96 -425 996 -425 999 0 3 -13 33 -29 68 -38 83 -116 267 -125 294 -5
16 14 54 79 155 47 74 88 142 92 152 3 9 9 17 14 17 5 0 9 5 9 10 0 6 24 47
53 93 75 118 158 282 171 342 2 6 8 30 16 55 44 156 45 397 1 560 -24 90 -108
289 -131 310 -3 3 -23 32 -45 64 -54 81 -184 208 -275 269 -126 85 -276 149
-417 177 -53 11 -336 23 -345 15z m300 -188 c115 -29 159 -44 237 -81 370
-181 574 -565 521 -985 -4 -30 -11 -62 -17 -72 -5 -11 -7 -19 -4 -19 10 0 -55
-163 -91 -228 -28 -50 -710 -1148 -821 -1321 -15 -23 -17 -19 -130 170 -63
107 -142 239 -175 294 -33 55 -68 114 -78 130 -9 17 -35 59 -57 95 -21 36 -42
72 -46 80 -4 8 -13 24 -19 34 -36 56 -98 157 -98 160 0 1 -45 79 -101 172
-150 251 -196 351 -214 471 -3 21 -7 50 -10 63 -12 61 -6 216 11 290 3 14 8
39 11 55 7 44 70 196 93 227 11 15 20 31 20 35 0 13 100 135 145 180 98 94
256 189 364 219 118 33 195 42 311 39 69 -1 135 -5 148 -8z m-2837 -1997 c2
-22 2 -23 12 -65 26 -103 117 -205 248 -275 46 -24 86 -45 89 -45 3 0 30 -12
60 -26 30 -14 70 -32 88 -40 17 -7 32 -17 32 -21 0 -5 5 -8 10 -8 18 0 49 -34
65 -73 8 -20 15 -39 15 -42 -2 -22 -50 -110 -90 -165 -102 -141 -140 -234
-134 -331 8 -132 91 -236 244 -306 84 -38 94 -42 155 -60 148 -42 440 -97 580
-108 22 -2 60 -6 84 -10 24 -3 69 -8 100 -10 191 -16 276 -26 381 -46 64 -12
201 -57 214 -70 6 -5 16 -9 23 -9 15 0 116 -60 121 -72 2 -4 9 -8 15 -8 44 -1
246 -264 222 -288 -9 -9 -3624 -11 -3630 -2 -2 4 43 116 101 251 57 134 108
253 113 264 4 11 17 40 29 65 11 25 53 124 93 220 40 96 76 177 79 180 3 3 6
10 7 15 2 10 79 196 108 260 7 17 34 80 60 140 50 118 62 145 92 215 11 25 62
145 114 267 l94 223 103 0 c95 0 102 -1 103 -20z m1999 11 c0 -4 73 -129 161
-277 89 -148 170 -285 181 -304 68 -119 240 -399 252 -409 19 -16 65 -20 92
-8 16 7 267 390 283 431 2 6 7 13 11 16 3 3 31 46 61 95 30 50 57 92 62 93 4
2 7 8 7 13 0 6 19 37 41 71 l42 61 84 -199 c46 -109 90 -212 97 -229 8 -16 33
-75 56 -130 23 -55 50 -118 60 -140 10 -22 91 -211 180 -420 182 -428 182
-427 203 -475 8 -19 36 -84 61 -145 25 -60 50 -117 55 -126 8 -14 -50 -16
-624 -16 l-634 0 -6 26 c-9 35 -68 165 -77 169 -5 2 -8 8 -8 14 0 33 -155 194
-245 254 -129 87 -314 157 -470 179 -22 3 -51 8 -65 10 -14 2 -56 7 -95 11
-38 4 -83 8 -100 9 -114 11 -164 16 -190 20 -16 2 -59 7 -95 10 -36 4 -76 9
-90 12 -14 2 -43 7 -65 9 -33 4 -250 46 -305 58 -169 40 -307 112 -332 175
-28 70 -17 106 84 258 59 87 126 213 114 213 -2 0 0 15 4 34 10 43 -4 116 -31
173 -28 58 -101 121 -190 165 -41 20 -122 59 -180 87 -135 66 -183 111 -203
194 l-6 27 910 0 c500 0 910 -4 910 -9z"/>
<path d="M4080 3869 c-74 -25 -97 -37 -150 -78 -219 -168 -248 -496 -61 -694
33 -36 151 -124 151 -113 0 3 21 -4 47 -16 58 -26 202 -30 278 -9 121 35 241
135 294 245 40 84 49 121 49 214 0 129 -47 242 -139 334 -91 90 -189 130 -324
133 -67 2 -104 -2 -145 -16z m261 -188 c108 -54 163 -140 165 -261 1 -41 -2
-79 -6 -85 -4 -5 -10 -22 -14 -37 -8 -36 -100 -129 -151 -153 -58 -27 -174
-26 -238 4 -106 49 -170 149 -170 266 0 87 25 147 86 208 84 84 225 109 328
58z"/>
<path d="M773 3645 c-134 -134 -135 -136 -130 -173 8 -45 38 -72 81 -72 26 1
50 20 164 133 115 116 132 137 132 166 0 43 -38 81 -81 81 -27 0 -50 -18 -166
-135z"/>
<path d="M2466 3759 c-19 -15 -26 -30 -26 -55 0 -32 13 -49 128 -165 103 -104
135 -131 162 -135 50 -8 90 24 90 74 0 33 -11 47 -134 169 -146 145 -166 155
-220 112z"/>
<path d="M1702 3449 c-47 -18 -53 -43 -52 -239 1 -178 2 -183 25 -206 30 -29
68 -31 106 -3 l29 20 0 188 c0 172 -2 190 -20 213 -22 28 -56 39 -88 27z"/>
</g>
</svg>
