<svg width="139" height="150" viewBox="0 0 139 150" fill="none" xmlns="http://www.w3.org/2000/svg">
<path d="M99.9202 76.4421C99.9278 76.4421 99.9368 76.4421 99.9444 76.4421C103.097 76.4421 106.06 75.2157 108.292 72.9894C110.531 70.7555 111.766 67.7861 111.769 64.6234C111.775 58.094 106.471 52.776 99.9459 52.7669C99.9429 52.7669 99.9383 52.7669 99.9353 52.7669C93.412 52.7669 88.1015 58.0653 88.094 64.5826C88.0879 67.7484 89.3189 70.7268 91.5557 72.9682C93.7896 75.2081 96.762 76.4421 99.9202 76.4421ZM99.9338 57.2512C99.9368 57.2512 99.9414 57.2512 99.9414 57.2512C103.995 57.2558 107.288 60.562 107.285 64.6189C107.283 66.5823 106.516 68.4265 105.126 69.813C103.74 71.1965 101.899 71.9563 99.9383 71.9563C99.9338 71.9563 99.9278 71.9563 99.9232 71.9563C97.9597 71.9563 96.1156 71.1905 94.7275 69.801C93.338 68.4084 92.5737 66.5582 92.5768 64.5887C92.5828 60.5424 95.8815 57.2512 99.9338 57.2512Z" fill="black"/>
<path d="M138.612 146.305L115.914 93.2073L123.647 80.8373C123.73 80.7044 123.798 80.5639 123.848 80.4204C126.492 76.0328 127.889 71.0621 127.889 66.0145C127.901 58.5396 125.008 51.5103 119.739 46.2225C114.47 40.9316 107.449 38.0106 99.9716 38C99.9595 38 99.9489 38 99.9383 38C84.5325 38 71.9813 50.524 71.9571 65.9359C71.9571 71.0606 73.3587 76.06 76.0155 80.4204C76.0578 80.5277 76.1091 80.6334 76.1711 80.7346L80.3684 87.7835H26.673C25.7743 87.7835 24.9633 88.3182 24.6114 89.1444L0.179502 146.305C-0.115021 146.996 -0.0440335 147.792 0.36981 148.421C0.785163 149.049 1.48749 149.428 2.24117 149.428H136.554C137.308 149.428 138.01 149.05 138.426 148.421C138.837 147.792 138.906 146.996 138.612 146.305ZM80.0301 78.3935C77.6799 74.6659 76.4384 70.3583 76.4384 65.9404C76.461 53.0011 86.9974 42.4858 99.9353 42.4858C99.9459 42.4858 99.955 42.4858 99.9655 42.4858C106.243 42.4949 112.139 44.9462 116.563 49.3882C120.985 53.8287 123.416 59.7313 123.405 66.0084V66.0114C123.405 70.3779 122.156 74.6825 119.791 78.4584C119.709 78.5853 119.644 78.7197 119.594 78.8587L99.4535 111.075L86.2105 88.8362C86.1939 88.809 86.1803 88.7819 86.1622 88.7562L80.2294 78.7937C80.1781 78.6548 80.1116 78.5204 80.0301 78.3935ZM28.1471 92.2678H33.2567C33.5769 98.6643 39.0611 101.073 43.1044 102.837C45.2265 103.763 47.421 104.719 48.1098 105.894C49.1973 107.749 48.4949 109.041 46.3653 111.998C44.4184 114.7 41.9943 118.062 43.6527 122.471C46.2233 129.307 59.5569 131.143 74.1743 132.557C76.8281 132.812 79.1178 133.034 80.5557 133.279C91.8442 135.196 95.6353 141.595 96.8708 144.948H5.63347L28.1471 92.2678ZM101.579 144.944C100.558 141.089 96.5098 131.435 81.3048 128.855C79.7099 128.585 77.3461 128.355 74.6063 128.091C66.5062 127.307 49.6504 125.677 47.85 120.889C47.0767 118.835 48.1642 117.168 50.0023 114.618C51.9627 111.9 54.6452 108.175 51.9779 103.624C50.5521 101.191 47.6763 99.9375 44.8972 98.7247C40.6787 96.8865 38.0567 95.4728 37.7682 92.2663H83.0342L97.481 116.526C97.8812 117.198 98.6017 117.613 99.384 117.621C99.3916 117.621 99.4006 117.621 99.4082 117.621C100.182 117.621 100.899 117.224 101.31 116.568L113.018 97.8396L133.155 144.944H101.579Z" fill="black"/>
<path fill-rule="evenodd" clip-rule="evenodd" d="M37.7594 59.4383C49.7959 59.4383 59.5535 49.6808 59.5535 37.6443C59.5535 25.6078 49.7959 15.8502 37.7594 15.8502C25.7229 15.8502 15.9653 25.6078 15.9653 37.6443C15.9653 49.6808 25.7229 59.4383 37.7594 59.4383ZM37.7594 55.4758C47.6075 55.4758 55.5909 47.4924 55.5909 37.6443C55.5909 27.7962 47.6075 19.8128 37.7594 19.8128C27.9113 19.8128 19.9279 27.7962 19.9279 37.6443C19.9279 47.4924 27.9113 55.4758 37.7594 55.4758ZM37.7594 0C36.6652 0 35.7781 0.854932 35.7781 1.96301V9.92466C35.7781 11.0088 36.6972 11.8877 37.7594 11.8877C38.8536 11.8877 39.7407 11.0327 39.7407 9.92466V1.96301C39.7407 0.878868 38.8216 0 37.7594 0ZM64.4593 11.0595C63.6856 10.2857 62.4538 10.263 61.6703 11.0466L56.0406 16.6763C55.274 17.4429 55.3024 18.7142 56.0535 19.4653C56.8272 20.2391 58.059 20.2618 58.8425 19.4782L64.4723 13.8485C65.2389 13.0819 65.2105 11.8106 64.4593 11.0595ZM75.5188 37.7594C75.5188 36.6652 74.6639 35.7781 73.5558 35.7781H65.5942C64.51 35.7781 63.6311 36.6972 63.6311 37.7594C63.6311 38.8536 64.4861 39.7407 65.5942 39.7407H73.5558C74.6399 39.7407 75.5188 38.8216 75.5188 37.7594ZM64.4593 64.4593C65.2331 63.6856 65.2558 62.4538 64.4723 61.6703L58.8425 56.0406C58.0759 55.274 56.8046 55.3024 56.0535 56.0535C55.2797 56.8272 55.257 58.059 56.0406 58.8425L61.6703 64.4723C62.4369 65.2389 63.7082 65.2105 64.4593 64.4593ZM37.7594 75.5188C38.8536 75.5188 39.7407 74.6639 39.7407 73.5558V65.5942C39.7407 64.51 38.8216 63.6311 37.7594 63.6311C36.6652 63.6311 35.7781 64.4861 35.7781 65.5942V73.5558C35.7781 74.6399 36.6972 75.5188 37.7594 75.5188ZM11.0595 64.4593C11.8332 65.2331 13.065 65.2558 13.8485 64.4723L19.4782 58.8425C20.2448 58.0759 20.2164 56.8046 19.4653 56.0535C18.6916 55.2797 17.4598 55.257 16.6763 56.0406L11.0466 61.6703C10.28 62.4369 10.3084 63.7082 11.0595 64.4593ZM6.373e-10 37.7594C6.373e-10 38.8536 0.854932 39.7407 1.96301 39.7407H9.92466C11.0088 39.7407 11.8877 38.8216 11.8877 37.7594C11.8877 36.6652 11.0327 35.7781 9.92466 35.7781H1.96301C0.878868 35.7781 6.373e-10 36.6972 6.373e-10 37.7594ZM11.0595 11.0595C10.2857 11.8332 10.263 13.065 11.0466 13.8485L16.6763 19.4782C17.4429 20.2448 18.7142 20.2164 19.4653 19.4653C20.2391 18.6916 20.2618 17.4598 19.4782 16.6763L13.8485 11.0466C13.0819 10.28 11.8106 10.3084 11.0595 11.0595Z" fill="black"/>
</svg>
